# xmcd
#
# Track frame offsets:
#	150
#	16065
#	30337
#	48727
#	68392
#	88642
#	107962
#	125452
#	144089
#	156021
#
# Disc length: 2461 seconds
#
# Revision: 0
# Processed by: cddbd v1.5.2PL0 Copyright (c) Steve Scherf et al.
# Submitted via: EasyCDDAExtractor 16.0.8.2
#
DISCID=72099b0a
DTITLE=Αχιλλέας π. Παπαδάκης-Κακούρης Γρηγόριος - Εσπερινός κ Όρθρος Α. Ραφαήλ
DTITLE=, Νικολάου κ Ειρήνης 2
DYEAR=2010
DGENRE=Βυζ. Εκκλησιαστική
TTITLE0=Θεός Κύριος
TTITLE1=Καθίσματα
TTITLE2=Κανόνας
TTITLE3=Μεγαλυνάρια
TTITLE4=Εξαποστηλάριον
TTITLE5=Αίνοι
TTITLE6=Δοξαστικόν
TTITLE7=Αναστάσεως Ημέρα
TTITLE8=Τοις αγίοις
TTITLE9=Νομίμως αθλήσαντες
EXTD=
EXTT0=
EXTT1=
EXTT2=
EXTT3=
EXTT4=
EXTT5=
EXTT6=
EXTT7=
EXTT8=
EXTT9=
PLAYORDER=
